<svg xmlns="http://www.w3.org/2000/svg" fill="none" viewBox="0 0 512 512">
  <circle cx="256" cy="256" r="256" fill="#1d354a"/>
  <path fill="#f4e8ad" d="M54 334.853V176.757h46.433c9.494 0 17.168 1.756 23.021 5.27 5.983 3.513 10.34 8.653 13.071 15.419 2.861 6.636 4.292 14.703 4.292 24.202 0 10.28-1.756 18.607-5.267 24.983-3.512 6.246-8.455 10.8-14.828 13.663-6.243 2.863-13.656 4.294-22.24 4.294H82.874v70.265H54Zm28.874-90.564h10.925c5.203 0 9.235-.715 12.096-2.147 2.992-1.561 5.008-3.968 6.048-7.222 1.171-3.383 1.756-7.872 1.756-13.467 0-5.725-.455-10.345-1.366-13.858-.78-3.643-2.601-6.311-5.462-8.002-2.732-1.692-7.089-2.538-13.072-2.538H82.874v47.234Zm73.618 90.564 2.731-158.096h29.85l22.435 109.496 23.412-109.496h28.874l2.926 158.096h-21.46l-2.341-109.887-22.436 109.887h-17.364l-22.826-110.277-2.146 110.277h-21.655Zm148.987 0V198.031h-25.168v-21.274h78.819v21.274h-24.777v136.822h-28.874ZM415.274 337c-11.575 0-20.68-2.277-27.313-6.831-6.503-4.555-11.055-10.735-13.657-18.542-2.601-7.938-3.902-17.046-3.902-27.326v-56.407c0-10.8 1.301-20.169 3.902-28.106 2.602-7.937 7.154-14.053 13.657-18.347 6.633-4.294 15.738-6.441 27.313-6.441 10.926 0 19.445 1.887 25.558 5.66 6.243 3.644 10.665 8.914 13.266 15.81 2.601 6.896 3.902 14.899 3.902 24.007v13.272h-27.703v-13.662c0-4.424-.261-8.458-.781-12.101-.39-3.644-1.626-6.506-3.707-8.588-1.951-2.212-5.397-3.318-10.34-3.318-4.942 0-8.584 1.171-10.925 3.513-2.211 2.212-3.642 5.27-4.292 9.173-.65 3.774-.976 8.068-.976 12.882v68.704c0 5.725.456 10.475 1.366 14.248.911 3.643 2.536 6.441 4.878 8.393 2.471 1.821 5.787 2.732 9.949 2.732 4.813 0 8.194-1.106 10.145-3.318 2.081-2.342 3.382-5.4 3.902-9.173.52-3.774.781-8.003.781-12.687v-14.248H458v12.687c0 9.368-1.236 17.696-3.707 24.983-2.471 7.156-6.828 12.817-13.071 16.98-6.113 4.034-14.762 6.051-25.948 6.051Z"/>
</svg>
